<?xml version="1.0" standalone="no"?>
<!DOCTYPE svg PUBLIC "-//W3C//DTD SVG 20010904//EN"
 "http://www.w3.org/TR/2001/REC-SVG-20010904/DTD/svg10.dtd">
<svg version="1.0" xmlns="http://www.w3.org/2000/svg"
 width="800.000000pt" height="800.000000pt" viewBox="0 0 800.000000 800.000000"
 preserveAspectRatio="xMidYMid meet">

<g transform="translate(0.000000,800.000000) scale(0.100000,-0.100000)"
fill="#000000" stroke="none">
<path d="M5215 5829 c-825 -71 -1511 -133 -1525 -137 -28 -8 -38 -43 -18 -59
8 -6 44 -7 103 -1 137 13 2988 258 3002 258 10 0 13 -289 15 -1392 3 -1332 4
-1393 21 -1396 49 -10 47 -81 47 1423 0 772 -3 1410 -6 1419 -5 13 -21 16 -73
15 -36 -1 -741 -59 -1566 -130z"/>
<path d="M2407 5834 c-241 -37 -418 -116 -554 -247 -66 -63 -76 -89 -42 -107
18 -10 29 -3 89 53 130 123 290 195 515 232 367 60 625 -62 625 -295 0 -55 -6
-78 -31 -128 -46 -93 -112 -141 -238 -172 -73 -18 -95 -40 -69 -66 15 -15 24
-15 80 -4 317 62 443 416 220 621 -121 112 -338 153 -595 113z"/>
<path d="M5255 5695 c-704 -51 -1338 -96 -1409 -100 -71 -4 -141 -11 -155 -15
l-26 -6 -3 -1071 c-2 -849 1 -1073 10 -1081 10 -8 1026 -92 1110 -92 16 0 23
-21 44 -142 6 -34 4 -37 -23 -40 -32 -3 -44 -37 -20 -56 11 -10 744 -102 808
-102 24 0 36 27 22 49 -7 11 -35 19 -89 26 l-79 10 -19 98 c-10 54 -16 100
-14 103 3 2 285 -17 627 -42 537 -41 623 -46 634 -33 9 11 11 302 9 1302 l-3
1287 -72 -1 c-39 -1 -648 -43 -1352 -94z m1355 -1205 l0 -1231 -47 6 c-39 5
-2805 215 -2827 215 -3 0 -5 458 -4 1018 l3 1017 1400 101 c770 56 1417 102
1438 103 l37 1 0 -1230z m-1480 -1186 c107 -8 198 -18 201 -22 7 -8 42 -193
37 -197 -5 -4 -456 50 -461 55 -2 3 -11 44 -19 93 l-15 87 31 0 c16 0 118 -7
226 -16z"/>
<path d="M4500 5413 c-25 -22 -32 -37 -32 -65 0 -29 -4 -37 -20 -40 -12 -2
-26 -11 -32 -21 -11 -19 -7 -24 39 -52 9 -5 20 -26 24 -45 4 -22 13 -36 25
-38 35 -7 47 42 22 90 -10 19 -11 29 -3 37 6 6 10 29 9 51 -3 35 0 41 23 50
20 7 26 16 23 33 -5 33 -41 33 -78 0z"/>
<path d="M3857 5389 c-16 -9 -17 -60 -17 -794 0 -752 1 -785 18 -794 13 -7 23
-6 30 1 9 9 12 217 12 794 0 822 0 817 -43 793z"/>
<path d="M4165 5388 c-3 -7 -4 -368 -3 -803 l3 -790 25 0 25 0 0 800 0 800
-23 3 c-12 2 -24 -3 -27 -10z"/>
<path d="M3980 5251 c-36 -5 -46 -10 -48 -27 -4 -30 17 -35 113 -28 61 5 86
11 90 22 14 38 -35 49 -155 33z"/>
<path d="M5398 5101 c-23 -11 -37 -27 -45 -54 -7 -21 -20 -45 -28 -53 -16 -17
-10 -44 11 -44 8 0 14 -10 14 -22 0 -46 12 -68 35 -68 28 0 34 14 27 57 -4 32
-4 32 47 39 62 8 85 23 75 48 -6 16 -15 18 -66 12 -46 -4 -58 -3 -58 9 0 18
19 30 50 30 20 0 25 5 25 24 0 34 -42 45 -87 22z"/>
<path d="M3948 5099 c-19 -11 -24 -45 -8 -51 5 -1 50 -2 99 0 92 3 108 12 95
47 -5 12 -24 15 -88 15 -44 0 -89 -5 -98 -11z"/>
<path d="M5820 5071 c0 -21 -6 -30 -21 -34 -29 -8 -22 -51 8 -55 16 -2 23 -11
25 -35 2 -27 7 -32 28 -32 22 0 25 5 28 38 3 29 7 37 22 37 25 0 43 33 28 48
-7 7 -22 12 -34 12 -15 0 -24 8 -28 25 -5 18 -13 25 -31 25 -21 0 -25 -5 -25
-29z"/>
<path d="M4825 5058 c-60 -33 -75 -115 -29 -162 52 -51 98 -17 48 35 -26 27
-26 29 -10 54 19 29 46 32 81 9 25 -16 36 -64 15 -64 -15 0 -12 -36 5 -50 11
-9 19 -7 40 14 77 77 -51 219 -150 164z"/>
<path d="M4565 5051 c-50 -21 -76 -86 -52 -131 7 -14 21 -25 32 -25 17 0 20 7
20 45 0 39 3 45 27 54 50 18 77 -36 43 -88 -13 -20 -13 -25 0 -42 14 -18 16
-18 45 14 50 54 37 137 -25 167 -36 16 -59 18 -90 6z"/>
<path d="M5614 5050 c-27 -11 -54 -48 -54 -75 0 -44 58 -93 95 -79 8 4 15 15
15 26 0 10 4 17 9 14 5 -4 16 -3 25 0 23 9 20 59 -6 88 -27 29 -55 38 -84 26z
m44 -78 c2 -14 -2 -22 -12 -22 -19 0 -29 17 -22 36 8 22 30 12 34 -14z"/>
<path d="M5060 5015 c-7 -8 -10 -22 -6 -30 4 -12 24 -15 94 -15 93 0 121 12
108 45 -8 22 -178 22 -196 0z"/>
<path d="M3943 4953 c-7 -2 -13 -16 -13 -29 0 -24 1 -24 94 -24 98 0 123 10
110 44 -5 13 -21 16 -93 15 -47 0 -92 -3 -98 -6z"/>
<path d="M5060 4935 c-10 -12 -10 -18 0 -30 18 -21 172 -21 190 0 7 8 10 22 6
30 -8 22 -178 22 -196 0z"/>
<path d="M3930 4795 c-10 -12 -10 -18 0 -30 9 -11 34 -15 100 -15 91 0 117 11
104 44 -9 23 -185 24 -204 1z"/>
<path d="M4612 4768 c-14 -14 -16 -136 -2 -158 7 -11 26 -14 81 -11 65 2 71 1
60 -13 -16 -19 -8 -46 14 -46 9 0 34 14 56 32 53 42 53 74 0 116 -45 36 -76
34 -68 -4 4 -23 1 -24 -44 -24 l-48 0 -3 57 c-3 60 -19 78 -46 51z"/>
<path d="M5608 4764 c-34 -18 -58 -62 -58 -104 0 -58 89 -119 107 -74 4 10 -6
26 -26 44 -21 20 -29 34 -25 47 15 42 69 57 98 27 20 -19 20 -63 1 -87 -7 -11
-11 -25 -8 -33 9 -25 43 -15 63 19 62 101 -48 218 -152 161z"/>
<path d="M5308 4701 c-18 -16 -44 -49 -57 -74 -21 -38 -23 -48 -12 -61 20 -24
27 -20 66 39 21 30 41 58 47 61 10 6 68 -43 68 -57 0 -5 -24 -9 -52 -11 -46
-3 -53 -6 -56 -25 -3 -22 -1 -23 88 -23 106 0 117 9 77 69 -47 71 -88 111
-113 111 -13 0 -38 -13 -56 -29z"/>
<path d="M5001 4706 c-14 -17 -1 -49 26 -65 15 -8 13 -13 -15 -39 -55 -52 -15
-92 41 -42 l34 29 28 -29 c32 -33 60 -39 69 -13 4 11 -4 27 -24 47 l-30 32 35
18 c36 20 47 52 20 62 -8 3 -32 -4 -54 -17 l-40 -22 -31 27 c-36 30 -43 31
-59 12z"/>
<path d="M3924 4645 c-13 -33 15 -45 106 -45 91 0 117 11 104 44 -9 23 -202
24 -210 1z"/>
<path d="M3924 4495 c-13 -33 15 -45 106 -45 91 0 117 11 104 44 -9 23 -202
24 -210 1z"/>
<path d="M6154 4446 c-16 -12 -17 -18 -7 -33 65 -95 69 -168 11 -230 -25 -26
-20 -57 9 -61 29 -4 79 72 89 136 9 58 -16 139 -54 175 -25 24 -30 26 -48 13z"/>
<path d="M5311 4414 c-17 -14 -31 -32 -31 -40 0 -8 -11 -19 -25 -24 -32 -12
-34 -47 -3 -59 14 -5 26 -22 33 -47 9 -32 15 -39 35 -39 23 0 25 4 23 38 -2
37 -2 37 36 37 25 0 41 5 45 15 8 22 -22 45 -60 45 -32 0 -34 2 -24 20 12 22
40 26 56 10 15 -15 44 -1 44 21 0 23 -37 49 -71 49 -15 0 -41 -12 -58 -26z"/>
<path d="M4724 4405 c-22 -34 -30 -113 -15 -157 14 -43 64 -93 85 -85 23 9 19
35 -10 70 -22 27 -25 37 -20 81 3 28 6 64 8 81 4 40 -25 46 -48 10z"/>
<path d="M4923 4412 c-12 -2 -34 -17 -48 -33 -33 -40 -33 -88 1 -128 30 -36
49 -39 64 -11 8 16 7 23 -10 37 -43 37 -8 99 38 67 16 -11 22 -26 22 -54 0
-22 7 -45 16 -54 20 -21 58 -20 75 0 11 14 10 19 -7 33 -12 9 -24 33 -28 53
-12 64 -62 100 -123 90z"/>
<path d="M5770 4393 c-62 -23 -82 -109 -36 -152 13 -13 32 -21 42 -19 24 4 31
38 10 50 -21 12 -21 57 0 65 23 9 39 -14 39 -55 0 -30 4 -38 21 -40 14 -2 24
5 32 23 19 42 14 65 -22 101 -33 33 -53 39 -86 27z"/>
<path d="M5964 4324 c-44 -71 -46 -77 -30 -90 25 -18 37 -11 70 42 l29 46 19
-31 c25 -38 17 -54 -20 -40 -22 8 -29 7 -40 -8 -11 -16 -10 -20 9 -35 12 -10
38 -18 60 -18 49 0 74 33 65 84 -8 43 -71 126 -96 126 -12 0 -34 -25 -66 -76z"/>
<path d="M5527 4379 c-24 -14 -45 -64 -39 -94 6 -31 40 -67 60 -63 23 4 27 36
8 57 -21 23 -10 53 18 49 15 -2 22 -11 24 -35 2 -17 10 -37 19 -44 13 -11 17
-10 29 6 25 34 13 93 -25 122 -20 15 -70 16 -94 2z"/>
<path d="M3932 4362 c-8 -5 -12 -18 -10 -28 3 -16 16 -20 83 -27 44 -4 90 -5
101 -2 24 5 36 26 25 43 -8 14 -182 26 -199 14z"/>
<path d="M5134 4286 c-10 -26 4 -48 28 -44 17 2 23 10 23 28 0 18 -6 26 -23
28 -13 2 -25 -3 -28 -12z"/>
<path d="M3924 4205 c-14 -36 2 -43 97 -47 67 -2 96 1 106 10 16 17 16 17 -3
36 -22 23 -192 23 -200 1z"/>
<path d="M3917 4058 c-2 -7 0 -21 5 -30 7 -15 23 -18 107 -18 78 0 100 3 105
15 3 8 -2 21 -10 30 -20 20 -200 22 -207 3z"/>
<path d="M6186 4017 c-14 -10 -15 -20 -6 -65 9 -49 8 -55 -11 -71 -22 -18 -18
-51 7 -51 10 0 14 -15 14 -54 0 -57 11 -71 43 -54 13 6 17 21 17 58 l0 50 34
0 c41 0 65 23 46 45 -7 8 -27 15 -45 15 -36 0 -34 -2 -51 92 -7 41 -24 53 -48
35z"/>
<path d="M3913 3904 c-12 -31 25 -44 123 -44 72 0 93 3 98 15 12 32 -22 45
-120 45 -79 0 -96 -3 -101 -16z"/>
<path d="M4451 3891 c-21 -14 -29 -206 -9 -214 32 -12 42 11 49 105 8 107 -2
133 -40 109z"/>
<path d="M1716 5346 c-14 -24 -38 -79 -53 -122 -24 -70 -27 -93 -27 -204 0
-108 4 -136 27 -205 34 -102 83 -185 155 -258 75 -77 84 -81 114 -57 l23 19
-67 68 c-114 116 -170 233 -184 386 -9 97 15 215 63 312 31 62 35 76 24 89
-23 28 -48 18 -75 -28z"/>
<path d="M3021 5081 c-6 -11 -11 -34 -11 -51 0 -27 -3 -31 -22 -28 -14 2 -22
9 -20 19 3 22 -31 51 -52 43 -9 -3 -19 -17 -22 -30 -6 -22 -11 -23 -92 -26
-85 -3 -87 -3 -87 -28 0 -24 2 -25 80 -28 72 -2 82 -5 90 -25 15 -32 53 -35
64 -3 7 18 15 23 30 19 18 -5 21 -13 21 -64 0 -52 2 -59 20 -59 32 0 41 33 43
157 2 103 0 118 -15 121 -9 2 -21 -6 -27 -17z"/>
<path d="M2425 4981 c-48 -21 -102 -80 -110 -119 -4 -15 -8 -36 -10 -46 -14
-69 46 -174 119 -207 90 -41 246 -2 246 61 0 38 -26 43 -73 16 -92 -54 -195
-16 -217 79 -11 51 5 98 46 134 29 26 43 31 87 31 31 0 61 -6 73 -15 27 -20
61 -19 73 4 8 14 5 23 -12 38 -53 46 -150 57 -222 24z"/>
<path d="M2970 4770 c-28 -28 -11 -63 28 -58 22 2 28 -2 30 -20 3 -18 -4 -26
-32 -37 -19 -8 -44 -15 -55 -15 -29 0 -44 -32 -26 -57 13 -18 13 -27 0 -70
-44 -147 -173 -248 -332 -258 -70 -5 -83 -9 -83 -30 0 -45 70 -57 173 -30 84
22 134 51 197 114 60 60 103 137 122 221 10 44 17 53 44 65 71 29 90 118 35
167 -37 33 -73 36 -101 8z"/>
<path d="M2653 4504 c-7 -3 -13 -17 -13 -30 0 -19 8 -29 35 -40 46 -19 110
-18 129 2 32 31 11 55 -50 58 -27 2 -58 6 -69 9 -11 3 -26 4 -32 1z"/>
<path d="M1813 4330 c-22 -52 -29 -60 -53 -60 -32 0 -53 -21 -48 -47 3 -15 31
-22 163 -45 290 -49 455 -93 540 -142 46 -27 84 -65 54 -54 -43 16 -257 59
-369 74 -70 9 -204 17 -303 18 -164 1 -180 -1 -192 -18 -10 -13 -11 -24 -5
-36 8 -16 35 -18 237 -23 166 -4 262 -11 353 -26 171 -29 348 -77 390 -105
142 -94 310 -287 412 -475 18 -34 48 -41 68 -16 38 46 -238 406 -404 525 -26
19 -56 48 -66 66 -20 32 -101 111 -134 129 -16 9 -16 16 4 118 23 117 18 141
-24 135 -18 -3 -24 -17 -42 -103 -15 -73 -24 -99 -35 -98 -8 1 -75 17 -149 36
-74 19 -182 42 -240 52 -58 10 -106 19 -108 20 -1 1 7 25 19 53 25 59 20 82
-16 82 -22 0 -30 -9 -52 -60z"/>
<path d="M1098 3975 c-13 -13 -9 -55 5 -59 6 -2 73 -9 147 -15 263 -21 507
-85 753 -195 80 -36 107 -32 107 15 0 22 -243 123 -408 170 -198 55 -581 108
-604 84z"/>
<path d="M821 3824 c-44 -55 -17 -145 54 -178 43 -21 1006 -208 1044 -204 20
2 27 10 29 30 3 25 0 27 -50 37 -29 6 -255 49 -503 97 -247 47 -461 92 -475
99 -14 7 -34 22 -44 34 -18 20 -18 22 -2 40 23 26 17 65 -10 69 -14 2 -29 -7
-43 -24z"/>
<path d="M2228 3619 c-10 -5 -18 -17 -18 -26 0 -14 289 -1575 321 -1730 11
-57 30 -72 58 -44 17 17 12 48 -148 902 -91 486 -170 890 -174 897 -10 14 -16
15 -39 1z"/>
<path d="M916 3524 c-9 -8 -16 -16 -16 -17 0 -8 351 -1735 355 -1744 6 -17 40
-16 54 1 10 12 -25 199 -164 888 -98 480 -182 876 -189 880 -16 11 -23 10 -40
-8z"/>
<path d="M2027 3486 c-5 -13 294 -1719 307 -1753 7 -17 40 -17 54 0 9 10 -29
238 -143 877 -85 475 -157 870 -159 877 -7 18 -53 17 -59 -1z"/>
<path d="M3055 3236 c-15 -11 -17 -29 -16 -119 3 -162 -19 -265 -87 -404 -28
-60 -32 -76 -22 -88 22 -27 48 -17 74 28 33 58 75 178 92 265 14 74 19 258 8
299 -8 27 -27 35 -49 19z"/>
<path d="M3474 3181 c-91 -33 -197 -98 -209 -129 -7 -18 12 -42 32 -42 9 0 42
18 74 39 90 60 219 102 219 72 0 -13 -65 -65 -177 -140 -63 -43 -93 -69 -93
-82 0 -11 -16 -33 -35 -50 -39 -34 -45 -63 -16 -78 15 -8 26 -4 56 19 78 62
157 60 235 -5 34 -28 45 -33 61 -25 29 16 23 40 -23 82 -29 27 -61 44 -100 55
l-58 16 68 45 c83 55 149 117 156 148 7 28 -16 79 -39 88 -30 11 -99 5 -151
-13z"/>
<path d="M4548 3064 c-14 -13 -9 -231 5 -241 6 -5 138 -35 292 -67 154 -32
353 -73 443 -92 90 -19 172 -32 183 -29 25 8 306 218 337 251 17 20 20 29 12
45 -6 10 -17 19 -26 19 -8 0 -88 -56 -179 -124 l-164 -123 -238 49 c-131 27
-319 66 -418 86 l-180 37 -3 59 -3 59 48 -7 c26 -3 204 -31 396 -62 l347 -57
0 -51 c0 -62 10 -79 41 -74 23 3 24 7 27 91 2 64 -1 89 -10 92 -14 5 -793 133
-863 142 -22 3 -43 1 -47 -3z"/>
<path d="M4017 2863 c-4 -3 -7 -17 -7 -29 0 -29 -51 -16 652 -161 318 -65 578
-120 578 -123 0 -3 -23 -20 -50 -37 l-49 -33 -208 49 c-114 27 -405 97 -645
155 -240 58 -449 106 -463 106 -29 0 -43 -25 -28 -48 5 -9 52 -25 114 -39 57
-14 316 -75 574 -138 259 -62 494 -118 524 -125 l54 -13 -34 -28 c-19 -16 -43
-31 -54 -34 -11 -3 -114 17 -230 45 -115 27 -215 50 -222 50 -19 0 -36 -39
-24 -54 6 -7 96 -32 201 -57 104 -24 190 -47 190 -50 0 -3 -21 -21 -47 -39
l-47 -34 -126 32 c-150 38 -166 39 -176 10 -9 -30 8 -40 117 -67 52 -13 98
-27 102 -31 5 -4 -7 -20 -27 -35 l-36 -27 -110 27 c-60 15 -117 25 -126 21
-10 -4 -14 -15 -12 -33 l3 -27 425 -103 c234 -56 435 -103 448 -103 26 0 40
25 26 48 -6 8 -66 28 -142 47 -73 18 -135 35 -138 38 -3 3 11 18 31 33 l37 28
136 -34 c163 -39 215 -43 220 -16 2 10 -1 23 -6 28 -5 5 -67 24 -136 41 -69
18 -126 37 -126 42 -1 6 17 23 39 39 l41 29 162 -42 c153 -40 163 -41 175 -25
7 10 13 21 13 26 0 16 -49 37 -157 64 -62 16 -113 32 -113 36 0 9 76 68 87 68
6 0 74 -18 153 -39 78 -22 149 -37 156 -34 8 3 14 16 14 30 0 29 -23 40 -155
73 -49 13 -92 25 -95 27 -2 2 8 14 24 26 18 15 25 28 21 39 -12 31 -43 31 -83
0 -56 -44 -56 -44 -129 -26 -102 24 -100 23 -75 40 25 17 28 43 10 63 -11 11
-9 13 12 8 160 -38 766 -158 783 -155 26 4 31 46 7 59 -17 10 -2000 419 -2028
419 -10 0 -22 -3 -25 -7z m1248 -481 l69 -17 -46 -38 -46 -38 -92 23 -91 23
43 32 c49 37 65 38 163 15z m-182 -125 l88 -22 -50 -38 -49 -38 -93 24 -92 23
49 37 c27 20 51 36 54 36 3 0 45 -10 93 -22z m-170 -130 c88 -22 88 -23 68
-41 -12 -11 -21 -25 -21 -33 0 -7 -7 -13 -15 -13 -19 0 -188 41 -195 47 -5 4
60 62 70 62 3 0 45 -10 93 -22z"/>
<path d="M3380 2733 c-8 -3 -27 -15 -42 -25 -56 -39 -19 -94 38 -57 35 23 84
24 124 4 26 -13 30 -13 45 1 23 24 15 47 -25 66 -33 17 -108 23 -140 11z"/>
<path d="M3710 2635 c-28 -33 -8 -48 105 -77 61 -15 126 -27 145 -25 30 2 35
6 35 27 0 24 -7 27 -120 57 -140 37 -149 38 -165 18z"/>
<path d="M3496 2525 c-37 -37 -15 -51 144 -90 79 -20 153 -35 164 -33 14 2 22
12 24 30 4 30 17 25 -178 73 -58 14 -112 28 -121 31 -9 2 -24 -3 -33 -11z"/>
<path d="M4083 2526 c-67 -22 -133 -64 -195 -125 -31 -31 -83 -79 -116 -108
-36 -32 -71 -75 -90 -112 -36 -67 -34 -94 7 -89 19 2 32 15 52 51 32 59 81
111 136 144 23 13 45 33 48 43 8 27 67 75 128 107 43 22 69 27 150 31 66 3 97
1 97 -7 0 -16 -73 -50 -132 -61 -28 -6 -59 -16 -67 -24 -9 -7 -28 -16 -42 -20
-15 -3 -36 -14 -49 -24 -21 -17 -21 -18 -3 -40 17 -22 19 -22 62 -7 81 28 163
15 233 -38 40 -31 63 -34 72 -11 12 32 5 45 -50 81 l-55 37 34 18 c51 26 109
84 105 105 -1 10 -21 27 -43 38 -51 25 -219 32 -282 11z"/>
<path d="M5659 2174 c-296 -273 -289 -265 -289 -314 0 -25 -5 -40 -12 -40 -13
0 -986 225 -1019 235 -9 3 -24 -2 -33 -10 -18 -19 -19 -25 -7 -43 9 -15 1107
-273 1128 -265 9 4 13 26 13 72 l0 66 255 235 c140 129 255 238 255 241 0 4
-3 14 -6 23 -15 40 -53 14 -285 -200z"/>
<path d="M5757 2118 c-162 -147 -287 -269 -287 -278 0 -10 7 -23 15 -30 12
-10 19 -9 37 3 48 32 563 509 567 525 3 14 -23 42 -39 42 -4 0 -136 -118 -293
-262z"/>
<path d="M4079 2245 c-34 -18 -41 -38 -24 -61 12 -17 17 -17 47 -6 54 19 75
15 119 -25 32 -29 44 -35 57 -26 41 25 15 80 -52 113 -49 23 -110 25 -147 5z"/>
<path d="M4110 2049 c-73 -64 -141 -92 -240 -97 -47 -2 -102 0 -123 6 -30 8
-40 7 -52 -5 -43 -42 18 -75 140 -76 110 -2 205 29 286 91 75 56 88 75 73 100
-18 28 -36 24 -84 -19z"/>
</g>
</svg>
