<?xml version="1.0" encoding="utf-8"?><!DOCTYPE svg PUBLIC "-//W3C//DTD SVG 1.1//EN" "http://www.w3.org/Graphics/SVG/1.1/DTD/svg11.dtd"><svg version="1.1" id="mask" xmlns="http://www.w3.org/2000/svg" xmlns:xlink="http://www.w3.org/1999/xlink" x="0px" y="0px" width="1973.665161px" height="1973.665161px" viewBox="0 0 1973.665161 723.521912"  xml:space="preserve">
<path class="p-first-view__draw-stroke" d="M1321.681506 306.290225 C1313.347583 306.688796 1304.441023 306.949427 1297.323859 302.595222 C1289.527500 297.825493 1285.762840 288.712896 1282.177818 280.305689 C1272.535451 257.693449 1260.751665 235.994925 1247.035499 215.595038 C1248.086284 240.572623 1249.137069 265.550208 1250.187854 290.527793 C1250.329138 293.886179 1250.329735 297.643772 1248.019003 300.084927 C1246.131771 302.078677 1243.212320 302.620280 1240.496455 303.021233 C1217.655658 306.393296 1194.448973 307.281212 1171.417291 305.664284 C1170.028139 305.566759 1168.510130 305.402863 1167.532742 304.410911 C1166.490803 303.353445 1166.406299 301.710592 1166.384725 300.226204 C1164.983044 203.783405 1163.581363 107.340606 1162.179682 10.897806 C1162.153237 9.078229 1164.358219 8.197060 1166.140096 7.827632 C1192.864297 2.287090 1220.193240 -0.331511 1247.483297 0.033507 C1257.809025 0.171618 1268.163170 0.739395 1278.317073 2.620357 C1306.166478 7.779326 1332.277277 23.385381 1348.572950 46.551205 C1364.868622 69.717028 1370.679377 100.382963 1362.308581 127.440939 C1353.937784 154.498916 1330.983731 176.967232 1303.338614 183.127736 C1329.499605 218.982242 1352.446029 257.181300 1371.812796 297.117142 C1372.726375 299.001016 1373.548893 301.492297 1372.074186 302.978516 C1371.184319 303.875328 1369.796249 303.989129 1368.534309 304.049482 C1352.916708 304.796396 1337.299107 305.543310 1321.681506 306.290225 M1355.048540 292.101632 C1356.314941 292.064892 1357.732157 291.961465 1358.575357 291.015878 C1359.824630 289.614908 1359.013021 287.423755 1358.145607 285.759125 C1338.620207 248.288492 1316.374649 212.235643 1291.641872 177.978099 C1288.610594 173.779455 1295.187185 169.442933 1300.147280 167.954743 C1334.714657 157.583427 1357.880251 119.706147 1353.684941 83.861106 C1349.489632 48.016065 1319.990807 17.269710 1284.822130 9.168366 C1276.310142 7.207572 1267.569065 6.434348 1258.845419 5.990881 C1230.126329 4.530944 1201.229351 6.604148 1173.012811 12.148912 C1171.635280 12.419607 1170.125150 12.782388 1169.314074 13.928259 C1168.642960 14.876396 1168.627414 16.123985 1168.637420 17.285561 C1169.411051 107.095748 1170.184681 196.905935 1170.958312 286.716122 C1170.976654 288.845467 1171.158423 291.306810 1172.892277 292.543014 C1174.057825 293.374027 1175.598295 293.385686 1177.029610 293.365085 C1191.432876 293.157776 1205.836142 292.950467 1220.239409 292.743158 C1228.074020 292.630393 1238.684848 289.657492 1237.937524 281.857789 C1235.080807 252.042720 1234.642689 221.996257 1236.628889 192.110571 C1261.060192 219.905091 1276.572161 254.221506 1291.730886 287.980015 C1294.019429 293.076606 1300.893252 293.672755 1306.477732 293.510741 C1322.668001 293.041038 1338.858271 292.571335 1355.048540 292.101632 z"/>
<path class="p-first-view__draw-stroke" d="M1415.836849 19.595373 C1415.856261 18.014881 1415.960131 16.238407 1417.138345 15.184773 C1418.162204 14.269181 1419.667684 14.207811 1421.041158 14.194970 C1430.509979 14.106459 1439.978800 14.017945 1449.447620 13.929430 C1457.795557 13.851393 1466.410255 13.822724 1474.117045 17.032011 C1481.823835 20.241299 1488.453821 27.571596 1488.156834 35.914613 C1485.949722 97.917006 1487.206294 160.042534 1491.918736 221.904967 C1492.475287 229.211071 1500.921533 234.136225 1508.099674 232.665444 C1515.277815 231.194663 1520.705314 224.920935 1523.221784 218.039345 C1525.738255 211.157755 1525.849275 203.665162 1525.931359 196.338351 C1526.564581 139.816743 1527.197804 83.295135 1527.831027 26.773527 C1527.863318 23.891252 1528.088036 20.598028 1530.359438 18.823404 C1531.823076 17.679878 1533.788942 17.477609 1535.639976 17.324116 C1544.956754 16.551539 1554.284798 15.914829 1563.620141 15.414255 C1576.146723 14.742561 1590.597750 15.120443 1598.585796 24.792955 C1604.429851 31.869363 1604.895878 41.812238 1605.068301 50.988228 C1606.130481 107.516969 1606.327007 164.168052 1601.164519 220.470586 C1599.471029 238.939960 1597.005607 257.961455 1587.603879 273.948737 C1576.407795 292.987251 1556.030776 305.719927 1534.371658 310.044264 C1512.712539 314.368602 1489.961321 310.818174 1469.458811 302.604504 C1446.705363 293.489068 1425.207612 277.215402 1417.404841 253.979066 C1413.161143 241.341505 1413.280596 227.714152 1413.444324 214.384106 C1414.241833 149.454528 1415.039341 84.524951 1415.836849 19.595373 M1478.378042 295.372580 C1495.576073 299.607601 1513.767923 300.841178 1530.992237 296.714354 C1548.216552 292.587531 1564.406308 282.763217 1574.287051 268.063605 C1585.484806 251.404672 1587.705341 230.467410 1589.190212 210.449794 C1593.564897 151.474475 1594.361440 92.233948 1591.574004 33.162328 C1591.433495 30.184641 1591.206878 26.993115 1589.354575 24.657449 C1586.607095 21.193005 1581.516908 20.982773 1577.096116 21.070071 C1566.129192 21.286639 1555.162268 21.503205 1544.195345 21.719772 C1539.663963 21.809254 1533.660388 23.272276 1533.593722 27.804051 C1532.756181 84.738491 1531.918641 141.672931 1531.081100 198.607372 C1530.925866 209.159888 1530.494561 220.539104 1524.017777 228.871630 C1514.332691 241.331708 1491.996614 240.079913 1483.764420 226.615685 C1479.745703 220.042843 1479.050077 212.033568 1478.514501 204.348160 C1474.421633 145.616327 1473.743666 86.646698 1476.485166 27.836292 C1476.721260 22.771610 1470.224107 20.562501 1465.173639 20.115837 C1451.610331 18.916316 1437.938912 18.941955 1424.380201 20.192346 C1423.156093 20.305232 1421.767755 20.522871 1421.090313 21.548667 C1420.650919 22.214008 1420.629716 23.061588 1420.623091 23.858897 C1420.086333 88.463949 1419.549572 153.069001 1419.012812 217.674053 C1418.907357 230.366710 1418.869190 243.435835 1423.584085 255.220758 C1432.324812 277.068285 1455.529461 289.746109 1478.378041 295.372581 z"/>
<path class="p-first-view__draw-stroke" d="M389.908555 280.768955 C375.942771 194.042289 366.512929 106.585368 361.670442 18.875004 C361.500489 15.796713 361.473587 12.328671 363.623689 10.119186 C365.595113 8.093322 368.712701 7.848294 371.536921 7.728225 C381.873645 7.288777 392.210368 6.849328 402.547092 6.409878 C413.290616 5.953132 425.689891 6.191115 432.530728 14.487793 C437.631126 20.673650 437.879926 29.402299 437.886145 37.419705 C437.911662 70.323664 437.937180 103.227622 437.962698 136.131580 C440.598698 127.283621 443.234698 118.435662 445.870698 109.587703 C446.704762 106.788097 448.125656 103.472772 451.031033 103.169064 C453.313098 102.930513 455.242889 104.758737 456.722517 106.512426 C463.812818 114.916015 468.865148 125.027023 471.328453 135.742656 C472.659576 97.957761 473.990699 60.172867 475.321821 22.387972 C475.476048 18.010131 475.875558 13.096273 479.203005 10.247171 C481.935015 7.907912 485.838198 7.691488 489.433382 7.588254 C498.270387 7.334508 507.107392 7.080760 515.944396 6.827012 C527.346483 6.499610 541.172276 7.509163 546.441420 17.626025 C549.160421 22.846557 548.656631 29.088100 548.084048 34.946348 C539.594331 121.806902 531.104615 208.667455 522.614899 295.528008 C522.444062 297.275894 522.240579 299.114005 521.217410 300.541386 C519.603753 302.792528 516.530426 303.312349 513.781155 303.648562 C501.309990 305.173682 487.257976 306.268049 477.589503 298.244548 C470.486787 292.350271 467.587019 282.926390 465.037619 274.055559 C462.579492 265.502317 460.121364 256.949075 457.663237 248.395834 C454.351010 262.541472 451.038783 276.687111 447.726556 290.832750 C445.196819 301.636580 431.420591 304.812571 420.325317 304.681479 C410.818919 304.569161 400.095457 302.931340 394.581416 295.186693 C391.623703 291.032494 390.719301 285.803648 389.908551 280.768956 M510.724493 284.202835 C519.229622 195.413554 527.734752 106.624273 536.239881 17.834992 C536.545620 14.643229 532.407449 13.163931 529.215795 12.857050 C515.770758 11.564304 502.187824 11.710602 488.773752 13.292642 C486.713519 13.535623 484.504060 13.883534 483.016892 15.329883 C481.238760 17.059211 481.036807 19.799654 480.945468 22.278359 C478.963451 76.065350 476.981433 129.852341 474.999415 183.639333 C472.223892 184.414790 470.541465 180.685437 470.075511 177.841541 C466.242158 154.445064 460.082062 131.430425 451.715578 109.247286 C446.027370 133.102369 439.434962 156.741833 431.957264 180.097876 C422.080536 128.092464 429.040756 74.415477 424.700762 21.658705 C424.427049 18.331464 423.802712 14.503386 420.918070 12.822824 C419.267079 11.860975 417.248259 11.862496 415.337731 11.890906 C401.586384 12.095399 387.835037 12.299891 374.083690 12.504383 C372.300800 12.530895 370.347987 12.620711 369.022437 13.813321 C367.378502 15.292387 367.368781 17.821017 367.486892 20.029230 C372.241232 108.916650 381.961704 197.538214 396.587863 285.342842 C396.868488 287.027512 397.224293 288.849597 398.502606 289.982195 C399.621543 290.973581 401.199876 291.209699 402.682182 291.403692 C409.383817 292.280752 416.279461 293.147966 422.828705 291.478073 C429.377949 289.808180 435.587231 284.980175 436.809057 278.332749 C440.289734 259.395903 443.916271 240.049360 453.455120 223.324242 C461.841447 241.612253 468.164883 260.845305 472.267104 280.541842 C473.545044 286.677794 479.475256 290.975112 485.606770 292.274175 C491.738285 293.573238 498.093856 292.472267 504.263792 291.370031 C505.955668 291.067784 507.763381 290.706547 508.967234 289.479953 C510.292978 288.129166 510.544020 286.086887 510.724493 284.202836 z"/>
<path class="p-first-view__draw-stroke" d="M630.434860 718.638318 C621.600372 718.946108 612.101745 719.074613 604.766652 714.141122 C597.544861 709.283836 594.074296 700.637498 590.705661 692.612550 C581.219180 670.013329 569.436664 648.378659 555.598284 628.149538 C556.774698 653.530822 557.951112 678.912106 559.127526 704.293390 C559.252979 707.000054 559.321965 709.919852 557.803440 712.163922 C555.762311 715.180289 551.680308 715.861283 548.056913 716.229641 C525.232162 718.550017 502.221956 719.043675 479.318691 717.704338 C478.311785 717.645456 477.226966 717.552792 476.461369 716.896144 C475.459894 716.037182 475.364056 714.548377 475.343627 713.229153 C473.861915 617.540918 472.380201 521.852684 470.898488 426.164449 C470.879463 424.935855 470.875725 423.642757 471.470949 422.567809 C472.464578 420.773372 474.727937 420.201049 476.743221 419.819038 C503.805193 414.689314 531.401369 412.382393 558.939427 412.947797 C567.382232 413.121143 575.838297 413.565520 584.178439 414.889541 C612.468501 419.380669 639.248408 434.594668 656.171794 457.705205 C673.095180 480.815741 679.473194 511.765300 671.377488 539.241788 C663.281781 566.718276 640.297386 589.717517 612.396708 596.202118 C637.540036 631.093335 659.902600 667.987863 679.202629 706.420829 C680.886504 709.774001 682.412199 714.219548 679.805268 716.918271 C663.348465 717.491620 646.891662 718.064969 630.434860 718.638318 M661.458735 705.110592 C663.958247 705.037310 667.041877 704.557590 667.842271 702.188561 C668.381766 700.591740 667.560089 698.885839 666.758050 697.403401 C646.675494 660.284122 624.420372 624.340411 600.144511 589.817485 C597.700293 586.341539 603.012037 582.742467 607.076913 581.504246 C630.716105 574.303435 650.496797 555.455252 658.829872 532.191056 C667.162947 508.926860 663.848051 481.805997 650.156987 461.233740 C633.085750 435.582414 602.174452 421.844887 571.557673 418.376382 C540.940895 414.907877 510.094461 420.367424 479.765721 425.806647 C479.054129 425.934266 478.286186 426.092398 477.807454 426.634116 C477.282855 427.227736 477.262763 428.099239 477.270677 428.891404 C478.176206 519.533404 479.081734 610.175404 479.987263 700.817403 C480.003942 702.486875 480.120807 704.379752 481.401746 705.450550 C482.452523 706.328943 483.950868 706.354660 485.320319 706.336982 C499.213261 706.157642 513.106203 705.978301 526.999145 705.798961 C531.324916 705.743121 535.794087 705.656816 539.734596 703.871376 C543.675106 702.085935 546.970665 698.123327 546.572397 693.815568 C543.841282 664.275217 543.491120 634.515071 545.526425 604.918638 C569.561765 633.064909 585.288014 667.189558 600.712488 700.834703 C603.091282 706.023525 610.101100 706.616336 615.806760 706.449053 C631.024085 706.002899 646.241410 705.556746 661.458735 705.110592 z"/>
<path class="p-first-view__draw-stroke" d="M1055.908012 507.067350 C1049.726419 507.344346 1043.190492 507.733569 1038.065837 511.201526 C1032.941182 514.669484 1030.166754 522.382961 1034.031489 527.215417 C1037.576463 531.648045 1044.280379 531.412629 1049.904587 530.648880 C1056.839011 529.707209 1063.880509 528.577468 1070.795033 529.655577 C1077.709557 530.733686 1084.630157 534.454682 1087.605173 540.788894 C1089.608922 545.055150 1089.620144 549.950064 1089.593395 554.663366 C1089.502170 570.737527 1089.410946 586.811689 1089.319722 602.885851 C1089.304413 605.583478 1089.200633 608.530317 1087.441723 610.575718 C1085.829574 612.450453 1083.233884 613.080203 1080.808456 613.560780 C1068.475694 616.004407 1055.904098 617.241097 1043.331578 617.247445 C1037.543888 617.250367 1035.640923 624.943920 1035.537600 630.730688 C1035.051808 657.938344 1034.566016 685.146000 1034.080224 712.353656 C1033.996021 717.069582 1027.739943 718.567627 1023.023819 718.639870 C1009.343584 718.849418 995.663350 719.058969 981.983116 719.268521 C969.719279 719.456376 955.010870 718.310303 949.081730 707.573344 C946.286602 702.511703 946.247178 696.439392 946.278002 690.657352 C946.731336 605.621122 947.184669 520.584892 947.638002 435.548663 C947.650214 433.258081 947.742696 430.746636 949.263939 429.034114 C950.781171 427.326112 953.256617 426.935098 955.524467 426.659199 C1008.152238 420.256726 1061.424657 419.165163 1114.270521 423.406463 C1123.757584 424.167875 1134.388319 425.721616 1140.061832 433.363303 C1144.449606 439.273221 1144.582322 447.212537 1144.535528 454.573074 C1144.450530 467.943192 1144.365531 481.313311 1144.280533 494.683430 C1144.268043 496.648025 1144.218582 498.739451 1143.127630 500.373346 C1141.371762 503.003069 1137.733825 503.400749 1134.574952 503.542298 C1108.352639 504.717315 1082.130325 505.892333 1055.908012 507.067350 M1030.288653 496.499462 C1062.032458 494.723330 1093.776262 492.947198 1125.520067 491.171065 C1127.203244 491.076888 1129.043834 490.916738 1130.251668 489.740689 C1131.614838 488.413390 1131.686281 486.283390 1131.668117 484.380859 C1131.517902 468.647747 1131.367689 452.914635 1131.217475 437.181523 C1131.199417 435.290174 1131.108784 433.207349 1129.818869 431.824002 C1128.569566 430.484210 1126.578763 430.216178 1124.755867 430.034932 C1069.819828 424.572820 1014.283495 425.169868 959.477582 431.811773 C957.324464 432.072708 954.951249 432.460430 953.585274 434.145102 C952.368066 435.646301 952.311551 437.747023 952.311548 439.679688 C952.311399 526.118944 952.311250 612.558199 952.311100 698.997454 C952.311097 701.160238 952.445770 703.624514 954.116098 704.998429 C955.418206 706.069468 957.253468 706.120940 958.939472 706.121631 C976.976237 706.129023 995.013001 706.136415 1013.049766 706.143807 C1016.899772 706.145385 1022.064726 704.921488 1022.040066 701.071561 C1021.855696 672.287398 1022.578774 643.497430 1024.207866 614.758814 C1024.322078 612.744017 1024.488271 610.595849 1025.715599 608.993939 C1027.349125 606.861860 1030.304555 606.366923 1032.969452 606.031528 C1046.040519 604.386449 1059.111586 602.741370 1072.182652 601.096291 C1075.988384 600.617315 1077.082019 595.686921 1077.200370 591.852993 C1077.780553 573.057550 1077.481879 554.235004 1076.305643 535.467434 C1065.294768 535.735981 1054.283894 536.004528 1043.273019 536.273076 C1037.213453 536.420864 1030.495498 536.336006 1026.020447 532.247718 C1021.070886 527.725929 1020.816986 520.150772 1020.918852 513.447462 C1021.027404 506.304254 1023.155777 496.898562 1030.288653 496.499462 z"/>
<path class="p-first-view__draw-stroke"	d="M1606.853452 653.648738 C1606.951621 669.946126 1607.049790 686.243514 1607.147960 702.540902 C1607.180316 707.912544 1606.567453 714.401039 1601.762647 716.803002 C1599.853174 717.757564 1597.637900 717.821842 1595.503577 717.865938 C1545.886557 718.891036 1496.257539 719.335376 1446.630119 719.198836 C1437.726085 719.174339 1426.956893 718.016648 1423.133043 709.975467 C1421.612364 706.777627 1421.591389 703.099429 1421.599679 699.558444 C1421.813087 608.406497 1422.026494 517.254550 1422.239901 426.102604 C1422.244928 423.955300 1422.303201 421.640794 1423.594048 419.924795 C1425.086682 417.940548 1427.764609 417.349803 1430.215289 416.950601 C1445.667903 414.433459 1461.459917 414.008359 1477.025571 415.690530 C1481.026140 416.122868 1485.094234 416.718416 1488.692600 418.519314 C1501.105976 424.731919 1502.721408 441.481372 1502.675197 455.362518 C1502.486603 512.012447 1502.298011 568.662374 1502.109418 625.312302 C1502.092427 630.416177 1503.594858 637.218927 1508.695894 637.389985 C1536.498618 638.322320 1564.301342 639.254655 1592.104065 640.186991 C1595.651796 640.305960 1600.514107 642.001434 1599.693376 645.454976 C1599.155373 647.718832 1603.141676 647.425340 1605.108926 648.668084 C1606.664366 649.650676 1606.842369 651.808968 1606.853452 653.648738 M1595.018026 692.804528 C1594.790133 677.426483 1594.562239 662.048437 1594.334346 646.670391 C1561.302932 644.945431 1528.271518 643.220471 1495.240104 641.495511 C1493.930880 641.427141 1492.492438 641.303668 1491.568973 640.373100 C1490.598269 639.394927 1490.529115 637.865327 1490.519735 636.487285 C1490.048829 567.297263 1489.577920 498.107242 1489.107011 428.917221 C1489.077467 424.576387 1483.666739 422.687899 1479.360598 422.139391 C1466.087296 420.448664 1452.653101 420.023363 1439.299435 420.871130 C1433.604237 421.232693 1426.233585 423.610764 1426.436538 429.313818 C1429.657890 519.832866 1429.371000 610.476705 1425.576732 700.973545 C1425.406618 705.030906 1430.893263 706.397064 1434.954184 706.390588 C1484.121075 706.312165 1533.287966 706.233744 1582.454857 706.155322 C1585.818042 706.149958 1589.515132 706.022678 1592.013322 703.770993 C1594.921469 701.149803 1595.076039 696.719192 1595.018027 692.804529 z"/>
<path class="p-first-view__draw-stroke" d="M662.607017 250.009692 C661.422316 245.025731 659.492983 239.219384 654.572339 237.794379 C650.397920 236.585482 645.922310 239.419003 643.741383 243.178093 C641.560457 246.937183 641.104951 251.412656 640.555937 255.723780 C638.794764 269.553443 635.588563 283.198644 631.006401 296.365462 C629.868041 299.636527 628.445318 303.125657 625.464134 304.888685 C623.013883 306.337726 619.998655 306.318421 617.152659 306.257162 C600.111676 305.890354 583.070692 305.523547 566.029708 305.156740 C560.224169 305.031776 559.012924 293.142011 553.481077 294.907958 C567.759831 200.679627 587.851860 107.332573 613.604950 15.573979 C614.369823 12.848728 615.294523 9.901789 617.632455 8.306139 C619.489986 7.038365 621.866757 6.894428 624.113352 6.792048 C635.869796 6.256293 647.626239 5.720538 659.382682 5.184783 C663.338569 5.004509 667.450596 4.850705 671.093691 6.402928 C678.644493 9.620118 681.459413 18.672790 683.389212 26.650308 C705.100367 116.401182 725.324825 206.511694 744.051492 296.932408 C744.592501 299.544641 744.954009 302.722646 742.922078 304.451144 C741.819539 305.389038 740.293336 305.606664 738.855246 305.771387 C728.168071 306.995525 717.385893 307.389334 706.637892 306.948097 C696.450978 306.529894 685.408954 304.952394 678.293514 297.650433 C672.684005 291.893880 670.606952 283.664924 668.748164 275.845117 C666.701115 267.233308 664.654065 258.621500 662.607016 250.009692 M629.967487 240.567659 C631.042335 235.683559 632.287544 230.488622 635.925687 227.057346 C642.344857 221.003173 653.533404 223.579589 659.510318 230.070757 C665.487231 236.561925 667.603372 245.614869 669.499582 254.232476 C671.455161 263.119891 673.410739 272.007305 675.366317 280.894720 C675.997388 283.762718 676.708354 286.785384 678.738030 288.907665 C680.774192 291.036728 683.781911 291.882482 686.659909 292.511759 C701.591732 295.776618 717.273839 295.557907 732.108805 291.877906 C713.211219 199.995853 692.753858 108.434604 670.748508 17.246913 C670.298809 15.383414 669.745052 13.360356 668.190145 12.239141 C666.758885 11.207086 664.852273 11.214666 663.088403 11.263738 C651.085402 11.597671 639.082400 11.931603 627.079398 12.265535 C625.149998 12.319213 623.100826 12.409980 621.507932 13.500005 C619.565949 14.828916 618.802766 17.281270 618.171855 19.548261 C593.596137 107.854091 574.269713 197.620496 560.328561 288.215913 C560.138944 289.448122 559.992026 290.846584 560.779936 291.812757 C561.605773 292.825438 563.091469 292.920668 564.398122 292.934307 C578.020550 293.076502 591.642977 293.218697 605.265403 293.360893 C611.098573 293.421782 618.594254 292.247524 619.848035 286.550366 C623.221185 271.222796 626.594336 255.895228 629.967487 240.567660 z"/>
<path class="p-first-view__draw-stroke" d="M1040.451152 251.251050 C1038.734504 244.184749 1033.612417 235.164265 1026.841711 237.817003 C1023.006395 239.319666 1021.584314 243.908137 1020.640956 247.917839 C1016.781067 264.324159 1012.921175 280.730478 1009.061283 297.136796 C1007.201224 305.042906 996.703199 306.456793 988.586173 306.173486 C972.096299 305.597930 955.606426 305.022381 939.116554 304.446831 C941.800883 300.427994 935.954597 296.215720 931.310945 294.876628 C945.275020 200.353257 965.349720 106.733065 991.368131 14.794470 C991.957287 12.712627 992.620652 10.514500 994.234646 9.073597 C996.175007 7.341330 998.993574 7.125330 1001.591448 6.995719 C1012.595680 6.446706 1023.599912 5.897693 1034.604144 5.348680 C1040.159041 5.071540 1046.095289 4.885343 1050.846943 7.775926 C1057.106160 11.583605 1059.350493 19.431252 1061.072917 26.552311 C1082.789281 116.334789 1102.956167 206.492049 1121.561566 296.970406 C1122.104077 299.608643 1122.473002 302.804204 1120.444317 304.575941 C1119.254110 305.615398 1117.569950 305.817447 1115.996116 305.959252 C1106.413581 306.822652 1096.783962 307.163233 1087.164373 306.978973 C1075.988017 306.764894 1063.741135 305.358871 1055.990156 297.304116 C1050.324385 291.416294 1048.182792 283.077103 1046.253848 275.136916 C1044.319616 267.174961 1042.385383 259.213005 1040.451151 251.251050 M1007.238974 240.715302 C1008.234930 235.921550 1009.383520 230.836122 1012.851750 227.380204 C1019.194705 221.059766 1030.641765 223.464061 1036.790528 229.973572 C1042.939290 236.483083 1045.163758 245.660615 1047.156332 254.390486 C1049.203236 263.358397 1051.250141 272.326306 1053.297047 281.294216 C1053.971954 284.251129 1054.742127 287.383061 1056.917805 289.496177 C1058.952505 291.472369 1061.863272 292.204598 1064.647079 292.748438 C1079.506510 295.651350 1094.980657 295.365979 1109.722950 291.917158 C1090.771440 200.434697 1070.409063 109.244513 1048.645504 18.389970 C1048.079769 16.028245 1047.342451 13.423097 1045.267704 12.160866 C1043.756224 11.241321 1041.875332 11.262762 1040.106809 11.312364 C1028.153671 11.647628 1016.200533 11.982890 1004.247395 12.318151 C1002.471203 12.367969 1000.582732 12.452909 999.122106 13.464794 C997.379871 14.671771 996.689846 16.875143 996.115777 18.915393 C971.365413 106.878665 952.053478 196.371788 938.326896 286.713908 C938.115326 288.106371 937.927203 289.625483 938.637985 290.841420 C939.713972 292.682107 942.229771 292.923814 944.361662 292.954109 C956.439185 293.125723 968.516708 293.297339 980.594231 293.468956 C987.561500 293.567958 996.552388 292.152148 997.969801 285.329862 C1001.059522 270.458340 1004.149248 255.586821 1007.238974 240.715302 z"/>
<path class="p-first-view__draw-stroke" d="M902.428041 431.595647 C906.036668 437.794588 905.843821 445.409259 905.546407 452.575891 C904.985820 466.084091 904.425232 479.592290 903.864644 493.100490 C903.713991 496.730699 902.231766 501.601296 898.619935 501.206593 C885.534462 499.776605 872.308038 499.639460 859.195726 500.797804 C856.940930 500.996993 854.434225 501.368488 853.037587 503.149832 C851.859406 504.652545 851.826979 506.725962 851.847272 508.635371 C852.563799 576.053815 853.280326 643.472258 853.996853 710.890702 C854.039262 714.880963 848.759782 716.265568 844.771507 716.398400 C828.374737 716.944505 811.977967 717.490609 795.581197 718.036714 C792.141908 718.151262 788.626703 718.256216 785.339835 717.237232 C778.763857 715.198568 774.226099 708.903219 772.367429 702.274118 C770.508759 695.645017 770.874959 688.625415 771.183674 681.747601 C773.732993 624.952144 771.335178 568.063955 768.937427 511.261899 C768.716453 506.027088 766.591210 499.011320 761.379977 499.554568 C747.513863 501.000052 730.924405 501.318446 722.687136 490.070961 C717.681938 483.236671 717.494444 474.122732 717.505986 465.651640 C717.524111 452.348858 717.542235 439.046076 717.560360 425.743294 C717.570209 418.514345 727.320309 416.341281 734.548260 416.461776 C778.925853 417.201588 823.303445 417.941398 867.681037 418.681208 C880.632716 418.897123 895.911161 420.400875 902.428041 431.595646 M890.860061 428.437965 C889.105494 426.617288 886.330985 426.348077 883.807122 426.194833 C832.788467 423.097114 781.637877 422.173061 730.540626 423.426023 C728.192169 423.483610 725.536459 423.688245 724.045405 425.503548 C722.819247 426.996350 722.792482 429.107703 722.825018 431.039247 C723.081182 446.246731 723.337346 461.454215 723.593510 476.661700 C723.745075 485.659544 735.598750 489.097259 744.552133 488.191115 C753.505517 487.284971 764.033957 485.201530 770.292933 491.667549 C774.496178 496.009834 774.958690 502.642883 775.165192 508.682757 C777.362605 572.953795 777.813274 637.284544 776.516534 701.580060 C776.455176 704.622304 780.573504 705.576437 783.616018 705.530367 C798.672307 705.302371 813.728595 705.074378 828.784884 704.846385 C834.678969 704.757133 842.572118 702.726539 842.380586 696.834890 C840.218379 630.324318 839.180741 563.777188 839.268265 497.231537 C839.273401 493.326340 840.490593 488.108502 844.395624 488.072070 C857.992069 487.945219 871.588513 487.818369 885.184958 487.691518 C886.948084 487.675069 888.951721 487.549679 890.070912 486.187219 C890.787873 485.314410 890.959039 484.128913 891.096436 483.007776 C893.038009 467.164668 893.636781 451.157220 892.884224 435.213337 C892.770506 432.804086 892.533733 430.174698 890.860061 428.437964 z"/>
<path class="p-first-view__draw-stroke" d="M10.200144 419.435780 C46.131608 413.015153 83.858335 410.974539 118.527051 422.392711 C153.195768 433.810883 184.355538 460.742519 193.004771 496.203559 C200.128943 525.411986 190.824614 557.689219 170.503410 579.846266 C150.182206 602.003312 119.731455 613.972124 89.672366 613.391464 C86.811009 613.336190 85.916042 617.209726 85.960716 620.071267 C86.424161 649.756452 86.887605 679.441636 87.351049 709.126820 C87.408502 712.806885 82.770442 714.401872 79.117538 714.851844 C60.102464 717.194144 40.861615 717.699987 21.749736 716.360044 C18.930421 716.162381 16.065211 715.913651 13.439262 714.868661 C2.866684 710.661330 1.128621 696.684330 1.060836 685.305558 C0.554503 600.306923 0.201029 515.307378 0.000419 430.307473 C-0.004623 428.171511 0.018653 425.923324 1.079887 424.069641 C2.832712 421.007940 6.727208 420.056362 10.200144 419.435780 M176.768486 476.934323 C164.047225 448.953941 135.261841 430.793869 105.306340 423.909084 C75.350840 417.024298 44.065135 419.915323 13.631926 424.222536 C11.330829 424.548210 8.839767 424.978391 7.264426 426.687019 C5.531499 428.566566 5.447366 431.389281 5.460971 433.945753 C5.921252 520.433903 6.381532 606.922053 6.841812 693.410203 C6.859615 696.755627 7.120258 700.608214 9.806420 702.602384 C11.343281 703.743328 13.347428 703.988210 15.252696 704.171653 C31.617348 705.747274 48.148913 705.583577 64.479155 703.684208 C69.130768 703.143180 75.021981 701.101276 74.963278 696.418674 C74.595276 667.064061 74.227274 637.709449 73.859272 608.354837 C73.814742 604.802802 75.014982 599.965115 78.560918 600.177874 C110.056490 602.067713 142.697358 589.721613 163.035751 565.599175 C183.374144 541.476738 189.827356 505.657278 176.768486 476.934324 z"/>
<path class="p-first-view__draw-stroke" d="M755.496262 5.535387 C805.830280 3.209680 856.295393 3.724095 906.571543 7.075369 C917.456921 7.800959 930.192407 9.822309 935.221671 19.503447 C937.788535 24.444559 937.638916 30.297853 937.428168 35.861930 C936.850815 51.104877 936.273463 66.347824 935.696110 81.590771 C935.594481 84.273938 934.651366 87.819920 931.966465 87.788034 C919.439917 87.639261 906.913369 87.490489 894.386822 87.341717 C889.911494 87.288565 883.873859 88.678928 883.918783 93.154345 C884.603343 161.350929 885.287904 229.547514 885.972464 297.744098 C885.987467 299.238782 885.938771 300.901628 884.896488 301.973053 C883.879580 303.018392 882.268229 303.136734 880.810837 303.190047 C864.312765 303.793568 847.814693 304.397089 831.316620 305.000609 C822.304109 305.330299 811.460267 304.705333 806.971151 296.883448 C804.878987 293.238040 804.762920 288.828277 804.701017 284.625621 C803.808512 224.031750 802.916004 163.437880 802.023496 102.844010 C801.917194 95.626982 799.135771 85.838229 791.957934 86.596817 C778.652418 88.003027 762.791621 88.046877 754.872608 77.262476 C749.981926 70.602175 749.761468 61.719118 749.735013 53.456086 C749.690386 39.516494 749.645758 25.576902 749.601130 11.637310 C749.595961 10.022439 749.650644 8.243348 750.736702 7.048227 C751.887644 5.781709 753.786731 5.614376 755.496262 5.535386 M923.039918 15.495903 C921.281590 13.683159 918.514370 13.410456 915.993913 13.252174 C865.236614 10.064668 814.336847 9.146646 763.497618 10.501768 C760.896252 10.571107 757.958914 10.802044 756.300596 12.807510 C754.994800 14.386657 754.891277 16.607523 754.859304 18.656373 C754.618539 34.084977 754.991920 49.523154 755.978266 64.922079 C756.462216 72.477547 765.920996 75.904700 773.471989 75.355320 C781.022982 74.805939 788.951653 72.246357 795.900581 75.251637 C806.541911 79.853805 808.191623 93.994078 808.257651 105.587762 C808.601333 165.936142 808.945020 226.284520 809.288706 286.632898 C809.298739 288.394507 809.395560 290.366381 810.678729 291.573379 C811.905369 292.727202 813.776073 292.761968 815.459773 292.728683 C830.623382 292.428900 845.786991 292.129119 860.950600 291.829338 C866.825226 291.713198 874.680635 289.659332 874.474493 283.787175 C872.127604 216.933615 871.074622 150.034634 871.316336 83.140330 C871.323652 81.115652 871.387994 78.922879 872.644008 77.334860 C874.356900 75.169197 877.522924 74.999790 880.284062 75.014340 C893.527366 75.084124 906.770669 75.153907 920.013973 75.223691 C922.104457 75.234707 922.968126 72.581854 923.202273 70.504496 C924.997890 54.573638 925.622402 38.510907 925.069104 22.488726 C924.983300 20.004046 924.770910 17.280465 923.039918 15.495903 z"/>
<path class="p-first-view__draw-stroke" d="M1264.666645 722.800627 C1253.429898 722.292618 1242.073804 721.063438 1231.562557 717.058909 C1218.484098 712.076333 1207.092668 702.774398 1199.596156 690.956003 C1187.245565 671.485058 1186.033512 647.217114 1185.185187 624.175085 C1184.598249 608.232789 1184.011311 592.290494 1183.424373 576.348199 C1182.484460 550.818452 1181.547250 525.193253 1184.096204 499.773688 C1186.574092 475.062827 1193.833887 448.393150 1214.239095 434.237090 C1221.476343 429.216269 1229.896648 426.154809 1238.411345 423.899518 C1263.583285 417.232215 1290.990289 417.381465 1315.106863 427.203394 C1339.223437 437.025324 1359.592145 457.112326 1367.031470 482.067003 C1371.126497 495.803460 1371.292812 510.359270 1371.427109 524.692496 C1371.806997 565.237147 1372.179880 605.916345 1367.343909 646.173350 C1365.655684 660.226974 1363.203468 674.579976 1356.011630 686.771445 C1347.263857 701.600507 1332.081523 711.902478 1315.732989 717.301554 C1299.384455 722.700631 1281.866063 723.578203 1264.666645 722.800625 M1268.960922 710.684461 C1297.520049 709.776339 1329.343250 701.723164 1343.785398 677.068088 C1348.364678 669.250507 1350.776953 660.362736 1352.592199 651.486411 C1358.347328 623.344552 1358.561417 594.403681 1358.753807 565.680020 C1358.856136 550.402370 1358.958465 535.124719 1359.060794 519.847069 C1359.187977 500.858676 1359.120527 481.012530 1350.419620 464.134453 C1341.888175 447.585099 1325.676676 435.800625 1307.973769 430.032279 C1290.270863 424.263934 1271.155361 424.054531 1252.696758 426.493109 C1241.041600 428.032877 1229.228685 430.724718 1219.408546 437.188343 C1206.892087 445.426690 1198.771189 459.146382 1194.537609 473.520277 C1190.304029 487.894173 1189.583618 503.040647 1189.167092 518.019250 C1188.035075 558.727622 1188.941918 599.492620 1191.883086 640.110380 C1193.182575 658.056443 1195.386951 677.234703 1207.076248 690.913526 C1221.641867 707.958221 1246.551745 711.397022 1268.960921 710.684458 z"/>
<path class="p-first-view__draw-stroke" d="M1942.910731 704.610594 C1932.168060 713.311550 1918.332181 717.123179 1904.762844 719.766039 C1887.116322 723.202998 1868.888548 725.028599 1851.175970 721.950124 C1833.463392 718.871650 1816.199251 710.473012 1805.064399 696.358215 C1791.091279 678.645573 1788.427968 654.770780 1786.964051 632.257612 C1784.411509 593.002764 1783.881362 553.616485 1785.376418 514.307158 C1786.468903 485.582523 1790.516389 453.237896 1813.409027 435.853268 C1821.150158 429.974670 1830.418518 426.425860 1839.802959 423.893026 C1864.754983 417.158547 1891.951766 417.305594 1915.934852 426.937224 C1939.917938 436.568854 1960.265691 456.206210 1968.272064 480.779666 C1973.258790 496.085112 1973.421786 512.482588 1973.538196 528.579500 C1973.817988 567.268400 1974.089120 606.104887 1969.034233 644.463163 C1966.105798 666.685170 1960.328426 690.503246 1942.910732 704.610594 M1792.872992 633.972785 C1793.975909 653.933655 1795.991344 675.364169 1808.919966 690.612234 C1826.954343 711.882044 1859.157137 713.215898 1886.743008 709.133827 C1904.760793 706.467612 1923.557082 701.680902 1936.419913 688.785289 C1950.924584 674.243651 1954.939956 652.471033 1957.061792 632.042070 C1961.361084 590.648606 1960.798648 548.922299 1960.231402 507.310029 C1960.068686 495.373380 1959.865179 483.194235 1955.940631 471.920017 C1950.237521 455.536447 1936.903980 442.468842 1921.328646 434.829743 C1905.753313 427.190644 1888.086567 424.598346 1870.740850 424.868425 C1844.994926 425.269300 1816.871364 433.607480 1803.453910 455.584404 C1798.262649 464.087347 1795.725345 473.937476 1794.001640 483.749616 C1790.294788 504.850763 1790.047463 526.394461 1790.195899 547.818212 C1790.394985 576.552364 1791.287695 605.281707 1792.872992 633.972785 z"/>
<path class="p-first-view__draw-stroke" d="M398.304838 700.742194 C386.473065 712.275651 369.833484 717.343621 353.598218 720.414061 C320.807321 726.615530 282.701035 724.551676 259.904179 700.179470 C239.010910 677.842394 237.462477 644.174014 237.090824 613.590759 C236.758863 586.273690 236.426901 558.956622 236.094940 531.639553 C235.887226 514.546853 235.695978 497.281607 239.312185 480.574526 C242.928393 463.867445 250.740141 447.523917 264.013604 436.752719 C277.136215 426.103939 294.329307 421.820677 311.145739 420.145268 C329.149560 418.351559 347.704481 419.273132 364.701245 425.475141 C391.269876 435.169865 412.600437 458.164123 420.276220 485.384742 C424.722078 501.151082 424.768372 517.775610 424.782521 534.156785 C424.814465 571.141504 424.839201 608.246428 420.163721 644.934442 C417.588029 665.145641 412.894652 686.520236 398.304839 700.742194 M265.403822 696.098698 C276.783161 706.075138 292.388592 709.804154 307.487808 710.820222 C322.903066 711.857557 338.482860 710.409957 353.443111 706.550276 C363.208870 704.030752 372.853415 700.411739 380.923318 694.362383 C393.694882 684.788569 401.537206 669.789440 405.448760 654.314605 C409.360314 638.839771 409.715424 622.719308 410.049487 606.761264 C410.658269 577.679708 411.267056 548.598153 411.875843 519.516599 C412.231618 502.521312 412.478418 484.929359 405.820903 469.288265 C398.065605 451.068049 381.403131 437.515832 362.771591 430.808625 C344.140052 424.101417 323.700296 423.716047 304.121617 426.681886 C292.920239 428.378706 281.628514 431.252730 272.216149 437.558078 C251.734294 451.278880 244.492861 477.911192 242.370705 502.472610 C240.668661 522.171719 241.247464 541.988458 241.827622 561.752447 C242.460424 583.309861 243.093226 604.867275 243.726028 626.424689 C244.461532 651.480799 246.555085 679.573725 265.403822 696.098698 z"/>
<path class="p-first-view__draw-stroke" d="M1722.030069 418.503174 C1723.637942 418.557126 1725.306005 418.626005 1726.737677 419.359818 C1731.324822 421.710990 1732.714286 430.131601 1737.749136 429.026974 C1735.317922 522.380145 1734.822563 615.783729 1736.263484 709.157437 C1736.382330 716.858847 1726.066080 719.392605 1718.363960 719.449016 C1697.870316 719.599111 1677.376671 719.749207 1656.883027 719.899303 C1657.647427 713.859504 1645.716582 712.381088 1646.313627 706.322456 C1655.546872 612.626270 1639.765812 517.707628 1650.160202 424.133140 C1650.371898 422.227372 1650.643174 420.204491 1651.871232 418.731862 C1653.800473 416.418406 1657.260384 416.329836 1660.271006 416.430858 C1680.857362 417.121629 1701.443715 417.812402 1722.030069 418.503174 M1714.381834 707.791735 C1716.996315 707.762751 1719.978434 707.544976 1721.590824 705.486688 C1722.786318 703.960584 1722.848840 701.863780 1722.859075 699.925199 C1723.335193 609.752001 1723.811310 519.578802 1724.287428 429.405604 C1724.294016 428.157789 1724.264152 426.800247 1723.480039 425.829551 C1722.504387 424.621745 1720.753216 424.465488 1719.201775 424.404467 C1699.455275 423.627833 1679.708775 422.851195 1659.962275 422.074557 C1658.125187 422.002303 1656.078874 422.002419 1654.724571 423.245792 C1653.286599 424.565981 1653.189733 426.762377 1653.194162 428.714463 C1653.403562 521.016407 1653.612963 613.318352 1653.822363 705.620296 C1673.960067 707.290861 1694.176197 708.015737 1714.381834 707.791735 z"/>
<path class="p-first-view__draw-stroke" d="M1266.919057 117.249086 C1255.024756 120.148801 1242.501708 120.439784 1230.485562 118.095647 C1226.920764 117.400218 1225.768030 112.946217 1225.419838 109.330948 C1224.260361 97.292162 1223.904078 85.176082 1224.354141 73.089966 C1224.400885 71.834674 1224.466613 70.537686 1225.022482 69.411209 C1226.093355 67.241075 1228.631683 66.297105 1230.948213 65.597151 C1242.892922 61.987991 1256.201559 59.769547 1267.537721 64.984288 C1281.797393 71.543870 1288.947173 90.325358 1282.659446 104.706973 C1281.040773 108.409286 1278.600483 111.852914 1275.208779 114.049175 C1272.710482 115.666921 1269.810705 116.544130 1266.919057 117.249086 M1258.755791 113.435691 C1262.392626 113.265656 1266.136299 113.070384 1269.436884 111.533629 C1277.322351 107.862149 1280.069705 97.740020 1279.018267 89.105507 C1278.509395 84.926601 1277.171125 80.569267 1273.931549 77.880897 C1271.013671 75.459487 1267.039104 74.787950 1263.253304 74.575914 C1255.950693 74.166908 1248.572755 75.146026 1241.629593 77.445574 C1240.491313 77.822568 1239.314980 78.267293 1238.518102 79.163279 C1237.341509 80.486206 1237.281193 82.430996 1237.283604 84.201447 C1237.295572 92.989128 1237.307539 101.776809 1237.319506 110.564490 C1237.320762 111.486173 1237.346604 112.483224 1237.912297 113.210887 C1238.732975 114.266545 1240.288058 114.299123 1241.623733 114.236676 C1247.334419 113.969680 1253.045105 113.702685 1258.755791 113.435689 z"/>
<path class="p-first-view__draw-stroke" d="M539.124691 530.571330 C537.948349 530.199783 536.754683 529.739072 535.877932 528.871238 C534.355275 527.364068 534.130487 525.019890 534.008481 522.880927 C533.336223 511.095098 533.077402 499.285691 533.232653 487.481726 C533.258615 485.507763 533.324927 483.429193 534.346698 481.740055 C535.833316 479.282472 538.878610 478.340695 541.666506 477.649771 C555.045204 474.334138 570.365110 472.650998 581.583269 480.659487 C591.041749 487.411766 595.230583 500.179459 593.107343 511.605217 C592.187712 516.554011 590.116719 521.434023 586.434003 524.865331 C580.691422 530.215884 572.240196 531.160571 564.417655 531.803605 C555.948692 532.499775 547.227647 533.130643 539.124691 530.571330 M588.214474 503.687010 C587.970906 499.353456 586.820296 494.844793 583.781616 491.745528 C579.464574 487.342412 572.576833 486.883315 566.430120 487.375465 C561.667015 487.756833 556.936266 488.541493 552.305094 489.718294 C550.192262 490.255174 547.930203 490.991987 546.703229 492.793884 C545.624035 494.378757 545.595598 496.428854 545.605595 498.346243 C545.645906 506.076009 545.686214 513.805774 545.726522 521.535540 C545.740045 524.128740 547.043044 527.758229 549.518317 526.984993 C559.170521 523.969796 570.585015 528.826504 579.338015 523.762764 C586.007738 519.904232 588.646876 511.380287 588.214474 503.687010 z"/>
<path class="p-first-view__draw-stroke" d="M657.781581 178.255304 C650.271745 179.058637 642.662831 178.931382 635.184058 177.877375 C634.146153 177.731100 632.986452 177.490214 632.416335 176.610663 C631.947933 175.888035 632.028608 174.953489 632.127089 174.097981 C634.943327 149.633019 638.283240 125.228342 642.143769 100.906298 C642.417610 99.181049 642.765920 97.317708 644.055821 96.139731 C645.345723 94.961755 647.891367 95.111927 648.402626 96.782283 C652.360293 109.712552 654.368166 123.145534 656.363010 136.519972 C658.155485 148.537625 659.947959 160.555278 661.740434 172.572931 C661.973166 174.133285 662.133679 175.939586 661.043523 177.079948 C660.227295 177.933766 658.956080 178.129667 657.781581 178.255305 M650.824560 138.043162 C648.291775 139.937164 648.243377 143.635187 648.296010 146.797381 C648.415054 153.949649 647.807198 161.189085 645.550391 167.977010 C644.763970 170.342375 646.260833 173.210799 648.650923 173.918528 C651.041013 174.626258 653.858341 173.035308 654.486602 170.623110 C654.736875 169.662196 654.674471 168.651163 654.610302 167.660268 C654.046395 158.952399 653.482487 150.244531 652.918579 141.536663 C652.822086 140.046609 652.315656 138.121975 650.824562 138.043160 z"/>
<path class="p-first-view__draw-stroke" d="M71.700151 543.287517 C70.271729 543.327775 68.756483 543.346865 67.525913 542.620430 C65.579567 541.471456 65.053088 538.940402 64.743601 536.701514 C62.494062 520.427888 61.683651 503.955596 62.324921 487.539747 C62.442395 484.532537 64.891761 482.010601 67.693652 480.912185 C70.495544 479.813769 73.600331 479.862897 76.606259 480.009562 C89.986802 480.662431 103.946008 483.230917 114.355338 491.663650 C124.764668 500.096383 130.214643 515.807505 123.541800 527.423800 C119.758011 534.010741 112.785463 538.279310 105.492276 540.403993 C98.199090 542.528675 90.507981 542.757436 82.914625 542.971447 C79.176467 543.076804 75.438309 543.182160 71.700151 543.287517 M115.783841 501.886566 C109.489578 495.009231 99.366768 493.559174 90.096474 492.570679 C86.996783 492.240157 83.787258 491.925093 80.823950 492.892631 C77.860643 493.860170 75.197729 496.476474 75.209538 499.593714 C75.250983 510.531834 75.292425 521.469952 75.333868 532.408069 C75.340849 534.250786 75.495807 536.391205 77.010466 537.440712 C78.140070 538.223414 79.641590 538.103290 81.007437 537.951335 C84.893886 537.518954 88.780334 537.086573 92.666783 536.654192 C100.102009 535.826997 107.994320 534.814398 113.776408 530.067367 C121.921653 523.380210 122.898944 509.660780 115.783841 501.886566 z"/>
<path class="p-first-view__draw-stroke" d="M1011.942566 177.794169 C1011.167712 177.693086 1010.330546 177.552713 1009.794013 176.984603 C1009.081191 176.229827 1009.178358 175.045214 1009.321801 174.016999 C1012.683098 149.922840 1016.044395 125.828680 1019.405692 101.734520 C1019.682836 99.747923 1020.045947 97.591494 1021.528394 96.240299 C1023.010842 94.889103 1025.977984 95.158877 1026.436623 97.111575 C1032.283421 122.004895 1036.382169 147.308617 1038.692695 172.774749 C1038.826936 174.254323 1038.905823 175.904299 1037.960012 177.049986 C1036.987258 178.228303 1035.290276 178.439492 1033.765241 178.534072 C1026.489661 178.985279 1019.170875 178.737135 1011.942566 177.794170 M1030.398476 138.697460 C1029.850523 137.652013 1028.174461 137.783530 1027.380915 138.657312 C1026.587368 139.531094 1026.435802 140.794117 1026.321713 141.968934 C1025.483949 150.595696 1024.646185 159.222458 1023.808422 167.849219 C1023.638403 169.599968 1023.543554 171.587723 1024.744690 172.872752 C1026.486650 174.736381 1029.880981 173.661157 1031.201622 171.478626 C1032.522264 169.296095 1032.383133 166.564968 1032.201917 164.020426 C1031.600770 155.579436 1030.999624 147.138448 1030.398477 138.697460 z"/>
<path class="p-first-view__draw-stroke" d="M1291.802916 484.562464 C1303.422991 492.912061 1306.204306 508.782803 1307.562064 523.027044 C1310.338126 552.150813 1311.107313 581.465697 1309.862358 610.694968 C1309.389414 621.798891 1308.362025 633.623878 1301.565673 642.417646 C1294.388542 651.704104 1281.989646 655.666149 1270.253117 655.607879 C1263.257316 655.573145 1256.015297 654.186469 1250.378189 650.043351 C1241.798556 643.737561 1238.627266 632.536272 1236.556759 622.091843 C1231.378136 595.968897 1229.633986 569.167206 1231.383312 542.593416 C1232.507941 525.509270 1235.458936 507.596062 1246.248586 494.302594 C1257.038237 481.009126 1277.898975 474.571800 1291.802912 484.562465 M1294.317394 496.009803 C1287.727942 490.380480 1277.503290 491.345261 1269.875858 495.460165 C1259.539998 501.036229 1252.412270 511.406873 1248.605739 522.516904 C1244.799207 533.626935 1243.984903 545.523023 1243.724782 557.264182 C1243.173579 582.143935 1244.973145 607.075247 1249.091706 631.617933 C1249.917896 636.541236 1250.989418 641.755839 1254.462174 645.342128 C1258.492668 649.504388 1264.804995 650.458722 1270.595885 650.271949 C1281.392211 649.923738 1292.801300 645.792120 1298.610621 636.685327 C1303.079276 629.680189 1303.580327 620.940712 1303.839976 612.635688 C1304.825612 581.109540 1304.226119 549.533889 1302.044519 518.067874 C1301.490331 510.074534 1300.409530 501.214274 1294.317396 496.009803 z"/>
<path class="p-first-view__draw-stroke" d="M1889.638228 482.148415 C1904.950211 490.206065 1908.444312 510.247282 1909.652392 527.507730 C1911.487018 553.719964 1912.163716 580.013216 1911.679852 606.285119 C1911.512443 615.374941 1911.160076 624.689311 1907.720736 633.105000 C1902.777907 645.199565 1891.164762 654.419219 1878.204769 656.077120 C1865.244776 657.735021 1851.492759 651.557303 1844.465850 640.542195 C1840.195274 633.847806 1838.438505 625.888888 1837.064856 618.068040 C1832.508451 592.126215 1831.345708 565.590365 1833.615580 539.349428 C1834.983812 523.531890 1837.899920 507.086646 1847.595512 494.514372 C1857.291104 481.942097 1875.588241 474.754866 1889.638225 482.148412 M1886.901961 492.041745 C1882.204343 491.055286 1877.261465 492.162280 1872.923689 494.217618 C1854.817006 502.796983 1848.247018 525.105376 1846.221019 545.039087 C1845.310593 553.996740 1844.913837 563.006573 1845.033350 572.009580 C1845.298583 591.989831 1848.099951 611.839578 1850.896170 631.624975 C1851.580029 636.463807 1852.417101 641.634198 1855.764842 645.194336 C1859.329359 648.985006 1864.922014 650.038438 1870.123959 650.159838 C1882.339409 650.444915 1895.648282 645.787845 1901.542309 635.084626 C1905.466503 627.958513 1905.516676 619.415973 1905.468597 611.280958 C1905.307218 583.975897 1905.145841 556.670835 1904.984463 529.365774 C1904.940079 521.856102 1904.866913 514.176264 1902.324397 507.109953 C1899.781880 500.043642 1894.251469 493.585077 1886.901961 492.041745 z"/>
<path class="p-first-view__draw-stroke" d="M284.660977 536.376477 C286.109657 520.647455 289.838245 504.337924 300.280474 492.486314 C310.722704 480.634705 329.466283 474.952002 342.861784 483.322268 C356.134403 491.615750 359.324920 509.270755 360.716798 524.859434 C363.064321 551.151098 363.910661 577.576724 363.250325 603.964721 C362.941753 616.296016 362.111993 629.255653 355.485864 639.660001 C348.946999 649.927329 336.891856 656.436415 324.720266 656.271661 C312.548676 656.106906 300.674131 649.273909 294.415567 638.833357 C288.890210 629.615940 287.784488 618.502463 286.808152 607.800267 C284.640998 584.044813 282.473218 560.130042 284.660977 536.376477 M337.465894 491.828586 C332.368161 491.112396 327.232264 492.976161 322.767376 495.538306 C312.881742 501.211108 305.155036 510.547708 301.431266 521.319894 C299.262256 527.594442 298.427523 534.244243 297.810933 540.854415 C294.886980 572.200770 296.603581 603.976070 302.887517 634.824986 C303.645086 638.544023 304.559909 642.432896 307.107610 645.246145 C310.546519 649.043497 316.117878 649.975183 321.240208 650.062973 C332.585450 650.257414 344.919019 646.737443 351.331153 637.375989 C356.756256 629.455565 356.849770 619.172936 356.746671 609.573235 C356.453005 582.229740 356.159340 554.886244 355.865674 527.542748 C355.786928 520.210641 355.675208 512.697160 353.051983 505.849920 C350.428758 499.002681 344.727113 492.848728 337.465893 491.828587 z"/>
</svg>
